<svg data-name="Layer 1" viewBox="0 0 144.33 70" xmlns="http://www.w3.org/2000/svg">
<defs>
<style>.cls-1 {
        fill: #89d4ed;
      }
      .cls-2 {
        fill: #4e4e4e;
      }</style>
</defs>
<title>logo</title>
<path class="cls-1" d="M39.73,45.13,23.81,36.72c-2.15-1.42-4.42-3.61-.42-5.82,3.48-1.9,11.48-5.63,13.24-6.48a.87.87,0,0,0,.24-.22L29,22.34V19.88c0-.42.18-.6.27-.6l7.57-2.6a.17.17,0,0,1,.17,0,.31.31,0,0,0-.24-.17l-9.08-2a1.15,1.15,0,0,0-.46,0l-8.1,2a.38.38,0,0,0-.29.45v7.43h0c-3.78,1.15-7.36,2.28-7.36,2.28C6.79,28.44,2,34.41,10.28,41.58l11.37,9.9a5,5,0,0,1,1.68,4,2,2,0,0,1-1,1.91l17.39-6s1.59-.45,1.59-3.13A3.32,3.32,0,0,0,39.73,45.13Z"/>
<path class="cls-2" d="M22.39,57.36a2,2,0,0,0,.94-1.88,5,5,0,0,0,0-.54h0a5,5,0,0,0-.14-.91l0-.11a5,5,0,0,0-.3-.81L22.8,53a5,5,0,0,0-.45-.74l-.08-.1a5,5,0,0,0-.62-.67l-11.37-9.9c-.33-.29-.63-.57-.92-.85h0l-.27-.27h0q-.33-.34-.63-.67l-.18-.2h0c-.31-.36-.58-.72-.83-1.07l0,0h0l-.25-.38h0l-.25-.4h0q-.19-.33-.35-.65h0l-.15-.33h0q-.11-.25-.2-.49h0L6.14,36h0a7.15,7.15,0,0,1-.32-1.39h0c.09,8,3.05,10.54,3.05,10.54l12,11.72a1.89,1.89,0,0,0,1.49.51Z"/>
<path class="cls-2" d="M74,38.4c0,2.89-2.28,4.7-5.15,4.7s-5.17-1.81-5.17-4.7,2.34-4.72,5.17-4.72S74,35.57,74,38.4Zm-3.06,0c0-1.13-.49-2.34-2.09-2.34a2.06,2.06,0,0,0-2.11,2.34c0,1.15.45,2.36,2.11,2.36s2.09-1.19,2.09-2.34Z"/>
<path class="cls-2" d="M85.18,42.92H82.1V37.79c0-1.07-.41-1.64-1.38-1.64A2,2,0,0,0,79,38.39v4.54H75.92V33.87H79V35a3.47,3.47,0,0,1,2.77-1.31c2.42,0,3.41,1.66,3.41,4.13Z"/>
<path class="cls-2" d="M93,42.92H89.37l-3.45-9H89l2.16,5.83,2.16-5.83h3.12Z"/>
<path class="cls-2" d="M109.7,47.47l2.05-5.13-.26.66-3.73-9.13h3.1l2.2,5.54,2.12-5.54h3.12l-3.42,8.47-2,5.13Z"/>
<path class="cls-2" d="m129.13 38.4c0 2.89-2.28 4.7-5.15 4.7s-5.17-1.81-5.17-4.7 2.34-4.72 5.17-4.72 5.15 1.89 5.15 4.72zm-3.06 0c0-1.13-0.49-2.34-2.09-2.34a2.06 2.06 0 0 0 -2.12 2.34c0 1.15 0.45 2.36 2.12 2.36s2.09-1.19 2.09-2.34z"/>
<path class="cls-2" d="M134.16,38.4v4.52h-3.08V33.87h3.08V35a2.87,2.87,0,0,1,2.38-1.31,2.41,2.41,0,0,1,.92.21v2.79h0a1.54,1.54,0,0,0-1.23-.51A2.24,2.24,0,0,0,134.16,38.4Z"/>
<path class="cls-2" d="M59.22,38.32a3.84,3.84,0,0,1-3.33,1.93,4.32,4.32,0,0,1,0-8.62,3.76,3.76,0,0,1,3.31,1.88L61.88,32a7.19,7.19,0,1,0,0,7.89h-.07Z"/>
<path class="cls-2" d="M74,38.4c0,2.89-2.28,4.7-5.15,4.7s-5.17-1.81-5.17-4.7,2.34-4.72,5.17-4.72S74,35.57,74,38.4Zm-3.06,0c0-1.13-.49-2.34-2.09-2.34a2.06,2.06,0,0,0-2.11,2.34c0,1.15.45,2.36,2.11,2.36s2.09-1.19,2.09-2.34Z"/>
<path class="cls-2" d="M85.18,42.92H82.1V37.79c0-1.07-.41-1.64-1.38-1.64A2,2,0,0,0,79,38.39v4.54H75.92V33.87H79V35a3.47,3.47,0,0,1,2.77-1.31c2.42,0,3.41,1.66,3.41,4.13Z"/>
<path class="cls-2" d="M93,42.92H89.37l-3.45-9H89l2.16,5.83,2.16-5.83h3.12Z"/>
<path class="cls-2" d="M109.7,47.47l2.05-5.13-.26.66-3.73-9.13h3.1l2.2,5.54,2.12-5.54h3.12l-3.42,8.47-2,5.13Z"/>
<path class="cls-2" d="m129.13 38.4c0 2.89-2.28 4.7-5.15 4.7s-5.17-1.81-5.17-4.7 2.34-4.72 5.17-4.72 5.15 1.89 5.15 4.72zm-3.06 0c0-1.13-0.49-2.34-2.09-2.34a2.06 2.06 0 0 0 -2.12 2.34c0 1.15 0.45 2.36 2.12 2.36s2.09-1.19 2.09-2.34z"/>
<path class="cls-2" d="M134.16,38.4v4.52h-3.08V33.87h3.08V35a2.87,2.87,0,0,1,2.38-1.31,2.41,2.41,0,0,1,.92.21v2.79h0a1.54,1.54,0,0,0-1.23-.51A2.24,2.24,0,0,0,134.16,38.4Z"/>
<path class="cls-2" d="M59.22,38.32a3.84,3.84,0,0,1-3.33,1.93,4.32,4.32,0,0,1,0-8.62,3.76,3.76,0,0,1,3.31,1.88L61.88,32a7.19,7.19,0,1,0,0,7.89h-.07Z"/>
<path class="cls-2" d="m104.11 39.79a2.25 2.25 0 0 1 -2 1.14 2.06 2.06 0 0 1 -2 -2.12h7v-0.58c0-2.89-2.28-4.54-5-4.54-3 0-5.28 1.91-5.28 4.74s2.16 4.72 5.28 4.72a4.83 4.83 0 0 0 4.22 -2zm-1.83-4.16a1.9 1.9 0 0 1 2 1.68h-4a1.87 1.87 0 0 1 2 -1.68z"/>
<path class="cls-2" d="M37.08,23.78s0-.06,0-.09V16.85c0-.24-.22-.17-.22-.17l-7.57,2.6c-.09,0-.27.18-.27.6v8.17c-2.14,1-4.25,2.09-5.64,2.85-3,1.64-2.48,3.26-1.16,4.57.07-.91,1.72-1.8,1.72-1.8l11.82-5.82C37.59,26.86,37.15,24.15,37.08,23.78Z"/>
</svg>
